<?xml version="1.0" encoding="UTF-8" standalone="no"?>
<!-- Created with Inkscape (http://www.inkscape.org/) -->

<svg
   width="89.860817mm"
   height="119.81441mm"
   viewBox="0 0 89.860815 119.81442"
   version="1.1"
   id="svg5520"
   inkscape:version="1.1.2 (0a00cf5339, 2022-02-04)"
   sodipodi:docname="folder-templates-symbolic.svg"
   xmlns:inkscape="http://www.inkscape.org/namespaces/inkscape"
   xmlns:sodipodi="http://sodipodi.sourceforge.net/DTD/sodipodi-0.dtd"
   xmlns="http://www.w3.org/2000/svg"
   xmlns:svg="http://www.w3.org/2000/svg">
  <sodipodi:namedview
     id="namedview5522"
     pagecolor="#ffffff"
     bordercolor="#666666"
     borderopacity="1.0"
     inkscape:pageshadow="2"
     inkscape:pageopacity="0.0"
     inkscape:pagecheckerboard="0"
     inkscape:document-units="mm"
     showgrid="false"
     inkscape:zoom="0.58261785"
     inkscape:cx="106.41624"
     inkscape:cy="350.14375"
     inkscape:window-width="1600"
     inkscape:window-height="832"
     inkscape:window-x="0"
     inkscape:window-y="0"
     inkscape:window-maximized="1"
     inkscape:current-layer="layer1" />
  <defs
     id="defs5517" />
  <g
     inkscape:label="Calque 1"
     inkscape:groupmode="layer"
     id="layer1"
     transform="translate(-76.583255,-55.838253)">
    <g
       id="g5813"
       transform="matrix(7.4884011,0,0,7.4884011,61.606453,55.838253)"
       style="fill:#1f1f1f;fill-opacity:1">
      <g
         transform="translate(-482,-176)"
         id="layer9"
         inkscape:label="status"
         style="display:inline;fill:#1f1f1f;fill-opacity:1" />
      <g
         transform="translate(-482,-176)"
         id="layer10"
         inkscape:label="devices"
         style="fill:#1f1f1f;fill-opacity:1" />
      <g
         transform="translate(-482,-176)"
         id="layer11"
         inkscape:label="apps"
         style="fill:#1f1f1f;fill-opacity:1" />
      <g
         transform="translate(-482,-176)"
         id="layer12"
         inkscape:label="actions"
         style="fill:#1f1f1f;fill-opacity:1" />
      <g
         transform="translate(-482,-176)"
         id="layer13"
         inkscape:label="places"
         style="fill:#1f1f1f;fill-opacity:1">
        <g
           transform="translate(254.0002,-820)"
           id="g40072"
           inkscape:label="folder-remote"
           style="fill:#1f1f1f;fill-opacity:1" />
        <path
           style="color:#000000;display:inline;overflow:visible;visibility:visible;fill:#1f1f1f;fill-opacity:1;fill-rule:nonzero;stroke:none;stroke-width:1;marker:none;enable-background:accumulate"
           d="m 2,0 v 12 h 1 v -1 h 1 v 1 h 1 v -1 h 1 v 1 h 1 v -1 h 1 v 1 h 1 v -1 h 1 v 1 h 1 v -1 h 1 v 1 h 1 v -1 h 1 V 5 L 9,0 Z m 11,12 v 1 h 1 v -1 z m 0,1 h -1 v 1 h 1 z m 0,1 v 1 h 1 v -1 z m 0,1 h -1 v 1 h 1 z m -1,0 v -1 h -1 v 1 z m -1,0 h -1 v 1 h 1 z m -1,0 V 14 H 9 v 1 z M 9,15 H 8 v 1 H 9 Z M 8,15 V 14 H 7 v 1 z M 7,15 H 6 v 1 H 7 Z M 6,15 V 14 H 5 v 1 z M 5,15 H 4 v 1 H 5 Z M 4,15 V 14 H 3 v 1 z M 3,15 H 2 v 1 H 3 Z M 3,14 V 13 H 2 v 1 z M 3,13 H 4 V 12 H 3 Z m 1,0 v 1 h 1 v -1 z m 1,0 H 6 V 12 H 5 Z m 1,0 v 1 h 1 v -1 z m 1,0 H 8 V 12 H 7 Z m 1,0 v 1 h 1 v -1 z m 1,0 h 1 V 12 H 9 Z m 1,0 v 1 h 1 v -1 z m 1,0 h 1 V 12 H 11 Z M 9,1.4140625 12.585938,5 H 9 Z"
           transform="translate(482,176)"
           id="path3028" />
      </g>
      <g
         transform="translate(-482,-176)"
         id="layer14"
         inkscape:label="mimetypes"
         style="fill:#1f1f1f;fill-opacity:1" />
      <g
         transform="translate(-482,-176)"
         id="layer15"
         inkscape:label="emblems"
         style="display:inline;fill:#1f1f1f;fill-opacity:1" />
    </g>
  </g>
</svg>
