<?xml version="1.0" encoding="UTF-8" standalone="no"?>
<svg
   height="16"
   width="16"
   version="1.1"
   id="svg20"
   sodipodi:docname="sidebar-tree-symbolic.svg"
   inkscape:version="1.1.2 (0a00cf5339, 2022-02-04)"
   xmlns:inkscape="http://www.inkscape.org/namespaces/inkscape"
   xmlns:sodipodi="http://sodipodi.sourceforge.net/DTD/sodipodi-0.dtd"
   xmlns="http://www.w3.org/2000/svg"
   xmlns:svg="http://www.w3.org/2000/svg">
  <defs
     id="defs24" />
  <sodipodi:namedview
     id="namedview22"
     pagecolor="#ffffff"
     bordercolor="#666666"
     borderopacity="1.0"
     inkscape:pageshadow="2"
     inkscape:pageopacity="0.0"
     inkscape:pagecheckerboard="0"
     showgrid="false"
     inkscape:zoom="40.875"
     inkscape:cx="8"
     inkscape:cy="8"
     inkscape:window-width="1600"
     inkscape:window-height="832"
     inkscape:window-x="0"
     inkscape:window-y="0"
     inkscape:window-maximized="1"
     inkscape:current-layer="svg20" />
  <g
     fill="#bebebe"
     id="g18"
     style="fill:#1f1f1f;fill-opacity:1">
    <path
       transform="matrix(1.25 0 0 1.25 -1 -.25)"
       d="m6 3a2 2 0 1 1 -4 0 2 2 0 1 1 4 0z"
       id="path2"
       style="fill:#1f1f1f;fill-opacity:1" />
    <path
       transform="matrix(.75 0 0 .75 10.5 5.25)"
       d="m6 3a2 2 0 1 1 -4 0 2 2 0 1 1 4 0z"
       id="path4"
       style="fill:#1f1f1f;fill-opacity:1" />
    <path
       transform="matrix(.75 0 0 .75 6.5 8.25)"
       d="m6 3a2 2 0 1 1 -4 0 2 2 0 1 1 4 0z"
       id="path6"
       style="fill:#1f1f1f;fill-opacity:1" />
    <path
       transform="matrix(.75 0 0 .75 10.5 11.25)"
       d="m6 3a2 2 0 1 1 -4 0 2 2 0 1 1 4 0z"
       id="path8"
       style="fill:#1f1f1f;fill-opacity:1" />
    <rect
       y="7"
       width="10"
       x="3"
       height="1"
       id="rect10"
       style="fill:#1f1f1f;fill-opacity:1" />
    <rect
       y="4"
       width="2"
       x="3"
       height="10"
       id="rect12"
       style="fill:#1f1f1f;fill-opacity:1" />
    <rect
       y="13"
       width="9"
       x="4"
       height="1"
       id="rect14"
       style="fill:#1f1f1f;fill-opacity:1" />
    <rect
       y="10"
       width="5"
       x="4"
       height="1"
       id="rect16"
       style="fill:#1f1f1f;fill-opacity:1" />
  </g>
</svg>
