<svg width="128" height="128" fill="none" xmlns="http://www.w3.org/2000/svg"><path fill-rule="evenodd" clip-rule="evenodd" d="M111.967 61H16.003c0 1.984 0 3.968-.003 5.951v16.486c0 1.365 0 2.729.002 4.093.002 5.457.004 10.914-.002 16.37-.03 1.62.23 3.209.713 4.723l.014.039a15.652 15.652 0 0 0 .969 2.364c.01.02.018.04.029.06.075.163.153.326.234.486a15.982 15.982 0 0 0 1.805 2.637 16 16 0 0 0 3.892 3.326c.387.24.784.464 1.19.67a14.757 14.757 0 0 0 5.62 1.606c.03.002.058.006.086.01.033.004.065.009.098.011.247.019.494.032.74.039.357.019.713.032 1.067.022l.078-.006c.45-.016.9-.047 1.344-.106 2.157-.252 4.24-.94 6.121-2.023l.266-.153c.59-.316 1.172-.647 1.734-1.002l.002-.002L72 99.281l32-18.474a16.003 16.003 0 0 0 6.083-6.27c1.407-2.614 1.884-5.537 1.884-8.531-.077-1.708 0-5.006 0-5.006Z" fill="url(#a)"/><path d="M111.967 66.006V61s-.077 3.298 0 5.006Z" fill="url(#b)"/><mask id="c" style="mask-type:alpha" maskUnits="userSpaceOnUse" x="15" y="8" width="97" height="106"><path fill-rule="evenodd" clip-rule="evenodd" d="M32.377 8.006C23.397 7.796 16.002 15.016 16 24v41.9l.014.03c-.02 10.656-.003 21.314-.014 31.97-.15 8.053 6.603 15.428 14.65 15.932 3.202.357 6.302-.538 9.127-1.973.075-.036.148-.062.223-.101l.266-.153c.59-.316 1.172-.647 1.734-1.001l.002-.002L104 74.752c7.048-3.897 10.057-13.431 6.471-20.652-1.64-3.746-4.937-6.356-8.471-8.215-.082-.033-.165-.06-.248-.09L40 10.145a16.002 16.002 0 0 0-7.623-2.14Z" fill="#F6F5F4"/></mask><g mask="url(#c)"><path fill="url(#d)" d="M8 8h110v112H8z"/><circle opacity=".25" cx="104" cy="77" r="71" fill="url(#e)"/><ellipse opacity=".25" cx="105.5" cy="77" rx="45.5" ry="45" fill="url(#f)"/><circle opacity=".25" cx="111" cy="77" r="26" fill="url(#g)"/><path d="M119 78H7v49h112V78Z" fill="url(#h)"/></g><mask id="i" style="mask-type:alpha" maskUnits="userSpaceOnUse" x="15" y="8" width="97" height="112"><path d="M16 24c.002-8.983 7.396-16.205 16.377-15.994 2.68.063 5.301.798 7.623 2.139l61.752 35.65.102.037c.049.017.098.034.146.053 3.534 1.86 6.831 4.469 8.471 8.215 1.162 2.339 1.631 4.92 1.496 7.475v4.43c0 2.995-.477 5.918-1.884 8.532a16.003 16.003 0 0 1-6.083 6.27L42.002 116.6l-.002.002c-.562.355-1.144.686-1.734 1.002l-.266.153a15.993 15.993 0 0 1-6.121 2.023c-.445.059-.893.09-1.344.106l-.078.006c-.354.01-.71-.003-1.066-.022a15.21 15.21 0 0 1-.74-.039c-.034-.002-.066-.007-.099-.011a1.225 1.225 0 0 0-.085-.01 14.757 14.757 0 0 1-5.621-1.606c-.406-.206-.803-.43-1.19-.67a16 16 0 0 1-3.892-3.326 15.982 15.982 0 0 1-1.805-2.637 15.735 15.735 0 0 1-.263-.546 16.183 16.183 0 0 1-.97-2.364l-.013-.039A14.645 14.645 0 0 1 16 103.9l.003-5.334A14.216 14.216 0 0 1 16 97.9V24Z" fill="#000"/></mask><g mask="url(#i)"><path fill-rule="evenodd" clip-rule="evenodd" d="M44 54h10a3 3 0 0 1 3 3v61H44v-14a2 2 0 0 0-2-2H-5v-4h47a2 2 0 0 0 2-2V80a2 2 0 0 0-2-2H-5v-4h47a2 2 0 0 0 2-2V54Zm3 4a1 1 0 0 1 1-1h5a1 1 0 0 1 1 1v4a1 1 0 0 1-1 1h-5a1 1 0 0 1-1-1v-4Zm1 10a1 1 0 0 0-1 1v4a1 1 0 0 0 1 1h5a1 1 0 0 0 1-1v-4a1 1 0 0 0-1-1h-5Zm-1 12a1 1 0 0 1 1-1h5a1 1 0 0 1 1 1v4a1 1 0 0 1-1 1h-5a1 1 0 0 1-1-1v-4Zm1 10a1 1 0 0 0-1 1v4a1 1 0 0 0 1 1h5a1 1 0 0 0 1-1v-4a1 1 0 0 0-1-1h-5Zm-1 12a1 1 0 0 1 1-1h5a1 1 0 0 1 1 1v4a1 1 0 0 1-1 1h-5a1 1 0 0 1-1-1v-4Z" fill="#3D3846"/><path d="M-5 54h49v18a2 2 0 0 1-2 2H-5V54Z" fill="url(#j)"/><path d="M-5 78h47a2 2 0 0 1 2 2v16a2 2 0 0 1-2 2H-5V78Z" fill="url(#k)"/><path d="M-5 102h47a2 2 0 0 1 2 2v16a2 2 0 0 1-2 2H-5v-20Z" fill="url(#l)"/></g><defs><linearGradient id="a" x1="16" y1="72" x2="112" y2="72" gradientUnits="userSpaceOnUse"><stop stop-color="#0E8266"/><stop offset=".086" stop-color="#2EC27E"/><stop offset=".27" stop-color="#0E8266"/><stop offset=".645" stop-color="#26A269"/><stop offset=".862" stop-color="#E5A50A"/><stop offset=".926" stop-color="#E66100"/><stop offset="1" stop-color="#C64600"/></linearGradient><linearGradient id="b" x1="16" y1="72" x2="112" y2="72" gradientUnits="userSpaceOnUse"><stop stop-color="#0E8266"/><stop offset=".086" stop-color="#2EC27E"/><stop offset=".27" stop-color="#0E8266"/><stop offset=".645" stop-color="#26A269"/><stop offset=".862" stop-color="#E5A50A"/><stop offset=".926" stop-color="#E66100"/><stop offset="1" stop-color="#C64600"/></linearGradient><linearGradient id="d" x1="112" y1="92.354" x2="19.33" y2="109.922" gradientUnits="userSpaceOnUse"><stop stop-color="#FFA348"/><stop offset=".475" stop-color="#C061CB"/><stop offset="1" stop-color="#1C71D8"/></linearGradient><linearGradient id="h" x1="99.5" y1="78" x2="18.749" y2="61.802" gradientUnits="userSpaceOnUse"><stop stop-color="#F8E45C"/><stop offset=".513" stop-color="#2EC27E"/></linearGradient><linearGradient id="j" x1="19.5" y1="54" x2="19.5" y2="74" gradientUnits="userSpaceOnUse"><stop stop-opacity=".5"/><stop offset="1" stop-color="#fff" stop-opacity=".2"/></linearGradient><linearGradient id="k" x1="19.5" y1="78" x2="19.5" y2="98" gradientUnits="userSpaceOnUse"><stop stop-opacity=".5"/><stop offset="1" stop-color="#fff" stop-opacity=".2"/></linearGradient><linearGradient id="l" x1="19.5" y1="102" x2="19.5" y2="122" gradientUnits="userSpaceOnUse"><stop stop-opacity=".5"/><stop offset="1" stop-color="#fff" stop-opacity=".2"/></linearGradient><radialGradient id="e" cx="0" cy="0" r="1" gradientUnits="userSpaceOnUse" gradientTransform="matrix(0 71 -71 0 104 77)"><stop stop-color="#F8E45C" stop-opacity="0"/><stop offset="1" stop-color="#F8E45C"/></radialGradient><radialGradient id="f" cx="0" cy="0" r="1" gradientUnits="userSpaceOnUse" gradientTransform="matrix(0 45 -45.5 0 105.5 77)"><stop stop-color="#F8E45C" stop-opacity="0"/><stop offset="1" stop-color="#F8E45C"/></radialGradient><radialGradient id="g" cx="0" cy="0" r="1" gradientUnits="userSpaceOnUse" gradientTransform="matrix(0 26 -26 0 111 77)"><stop stop-color="#F8E45C" stop-opacity="0"/><stop offset="1" stop-color="#F8E45C"/></radialGradient></defs></svg>