<?xml version="1.0" encoding="UTF-8" standalone="no"?>
<svg
   width="32"
   height="32"
   version="1.1"
   id="svg1"
   sodipodi:docname="start-here-kde.svg"
   inkscape:version="1.3.2 (091e20ef0f, 2023-11-25)"
   xmlns:inkscape="http://www.inkscape.org/namespaces/inkscape"
   xmlns:sodipodi="http://sodipodi.sourceforge.net/DTD/sodipodi-0.dtd"
   xmlns="http://www.w3.org/2000/svg"
   xmlns:svg="http://www.w3.org/2000/svg">
  <defs
     id="defs1" />
  <sodipodi:namedview
     id="namedview1"
     pagecolor="#ffffff"
     bordercolor="#000000"
     borderopacity="0.25"
     inkscape:showpageshadow="2"
     inkscape:pageopacity="0.0"
     inkscape:pagecheckerboard="0"
     inkscape:deskcolor="#d1d1d1"
     inkscape:zoom="8.4189901"
     inkscape:cx="16.510294"
     inkscape:cy="42.404136"
     inkscape:window-width="1920"
     inkscape:window-height="994"
     inkscape:window-x="0"
     inkscape:window-y="0"
     inkscape:window-maximized="1"
     inkscape:current-layer="svg1" />
  <style
     type="text/css"
     id="current-color-scheme">.ColorScheme-Text { color: #fcfcfc; }
</style>
  <g
     transform="translate(-46,-1) translate(-22,0)"
     id="start-here-kde">
    <rect
       style="fill:none;fill-rule:evenodd;stroke:none;stroke-width:1px;stroke-linecap:butt;stroke-linejoin:miter;stroke-opacity:1"
       id="rect3343"
       width="32"
       height="32"
       x="68"
       y="1" />
    <path
       id="path20-6-0-7"
       style="fill:currentColor;fill-opacity:1;stroke-width:0.994603"
       d="m 78.000108,5.2577832 c -0.828626,0 -1.500183,0.664334 -1.500183,1.483664 0,0.819738 0.67155,1.483936 1.500183,1.483936 0.828286,0 1.500029,-0.664198 1.500029,-1.483936 0,-0.81933 -0.671743,-1.483664 -1.500029,-1.483664 z m 10.5,0 c -1.828262,-1.003787 -3.996039,1.121979 -3.000106,2.9676 l 4.500137,4.4516588 -4.500137,4.451772 c -1.235695,2.04192 1.209354,3.999811 3.000106,2.967828 L 96,12.677042 Z M 74.50008,14.161113 c -1.380655,0 -2.50008,1.107284 -2.50008,2.473049 0,1.365915 1.119425,2.473259 2.50008,2.473259 1.380557,0 2.499888,-1.107344 2.499888,-2.473259 0,-1.365765 -1.119331,-2.473049 -2.499888,-2.473049 z m 6.499908,8.903215 c -1.65694,0 -2.99988,1.32887 -2.99988,2.967977 0,1.639027 1.34294,2.967695 2.99988,2.967695 1.656861,0 3.000109,-1.328668 3.000109,-2.967695 0,-1.639107 -1.343248,-2.967977 -3.000109,-2.967977 z"
       class="ColorScheme-Text "
       sodipodi:nodetypes="ssssscccccccssssssssss" />
  </g>
</svg>
