<svg height="128" width="128" xmlns="http://www.w3.org/2000/svg"><path d="M32 96c-2.216 0-4 1.98-4 4.444v11.112c0 2.46 1.784 4.444 4 4.444h64c2.216 0 4-1.98 4-4.444v-11.112c0-2.46-1.784-4.444-4-4.444z" fill="#5e5c64"/><path d="M32 92c-2.216 0-4 1.98-4 4.444v11.112c0 2.46 1.784 4.444 4 4.444h64c2.216 0 4-1.98 4-4.444V96.444c0-2.46-1.784-4.444-4-4.444z" fill="#9a9996"/><path d="M12 20c-2.216 0-4 1.832-4 4.104v71.792A4.04 4.04 0 0 0 12 100h104c2.216 0 4-1.832 4-4.104V24.104A4.04 4.04 0 0 0 116 20z" fill="#5e5c64"/><path d="M12 16c-2.216 0-4 1.784-4 4v72c0 2.216 1.784 4 4 4h104c2.216 0 4-1.784 4-4V20c0-2.216-1.784-4-4-4z" fill="#9a9996"/><path d="M12 20h104v72H12z" fill="#3d3846"/><path d="M16 24h96v64H16z" fill="#33d17a"/><path d="M60 28l-3.108 9.328c-.36.136-.72.28-1.072.44l-8.788-4.392-5.656 5.656 4.4 8.796a20 20 0 0 0-.464 1.064L36 52v8l9.328 3.108c.136.36.28.72.44 1.072l-4.392 8.788 5.656 5.656 8.796-4.4c.348.168.704.32 1.064.464L60 84h8l3.108-9.328c.36-.136.72-.28 1.072-.44l8.788 4.392 5.656-5.656-4.4-8.796c.168-.348.32-.704.464-1.064L92 60v-8l-9.328-3.108a19.96 19.96 0 0 0-.44-1.072l4.392-8.788-5.656-5.656-8.796 4.4a19.968 19.968 0 0 0-1.064-.464L68 28zm4 16a12 12 0 1 1 0 24 12 12 0 0 1 0-24z" fill="#3d3846"/><path d="M16 24h72L72 88H16z" fill="#fff" opacity=".2"/></svg>