<?xml version="1.0" encoding="UTF-8" standalone="no"?>
<svg
   width="16px"
   height="16px"
   viewBox="0 0 16 16"
   version="1.1"
   id="svg14"
   sodipodi:docname="go-next-symbolic.svg"
   inkscape:version="1.1.2 (0a00cf5339, 2022-02-04)"
   xmlns:inkscape="http://www.inkscape.org/namespaces/inkscape"
   xmlns:sodipodi="http://sodipodi.sourceforge.net/DTD/sodipodi-0.dtd"
   xmlns="http://www.w3.org/2000/svg"
   xmlns:svg="http://www.w3.org/2000/svg">
  <defs
     id="defs18" />
  <sodipodi:namedview
     id="namedview16"
     pagecolor="#ffffff"
     bordercolor="#666666"
     borderopacity="1.0"
     inkscape:pageshadow="2"
     inkscape:pageopacity="0.0"
     inkscape:pagecheckerboard="0"
     showgrid="false"
     inkscape:zoom="40.875"
     inkscape:cx="8"
     inkscape:cy="8"
     inkscape:window-width="1600"
     inkscape:window-height="832"
     inkscape:window-x="0"
     inkscape:window-y="0"
     inkscape:window-maximized="1"
     inkscape:current-layer="svg14" />
  <g
     fill="#2e3436"
     id="g12"
     style="fill:#1f1f1f;fill-opacity:1">
    <path
       d="m4.293 2.707 1.4141-1.4141 6.707 6.707-6.707 6.707-1.4141-1.4141 5.293-5.293z"
       id="path2"
       style="fill:#1f1f1f;fill-opacity:1" />
    <path
       d="m5 15h-1v-1h1z"
       id="path4"
       style="fill:#1f1f1f;fill-opacity:1" />
    <path
       d="m5 2h-1v-1h1z"
       id="path6"
       style="fill:#1f1f1f;fill-opacity:1" />
    <path
       d="m5 3c-0.55469 0-1-0.44531-1-1s0.44531-1 1-1 1 0.44531 1 1-0.44531 1-1 1z"
       id="path8"
       style="fill:#1f1f1f;fill-opacity:1" />
    <path
       d="m5 15c-0.55469 0-1-0.44531-1-1s0.44531-1 1-1 1 0.44531 1 1-0.44531 1-1 1z"
       id="path10"
       style="fill:#1f1f1f;fill-opacity:1" />
  </g>
</svg>
