<?xml version="1.0" encoding="UTF-8" standalone="no"?>
<svg
   width="16px"
   height="16px"
   viewBox="0 0 16 16"
   version="1.1"
   id="svg16"
   sodipodi:docname="view-list-symbolic.svg"
   inkscape:version="1.1.2 (0a00cf5339, 2022-02-04)"
   xmlns:inkscape="http://www.inkscape.org/namespaces/inkscape"
   xmlns:sodipodi="http://sodipodi.sourceforge.net/DTD/sodipodi-0.dtd"
   xmlns="http://www.w3.org/2000/svg"
   xmlns:svg="http://www.w3.org/2000/svg">
  <defs
     id="defs20" />
  <sodipodi:namedview
     id="namedview18"
     pagecolor="#ffffff"
     bordercolor="#666666"
     borderopacity="1.0"
     inkscape:pageshadow="2"
     inkscape:pageopacity="0.0"
     inkscape:pagecheckerboard="0"
     showgrid="false"
     inkscape:zoom="21.905678"
     inkscape:cx="3.6976715"
     inkscape:cy="2.5107646"
     inkscape:window-width="1600"
     inkscape:window-height="832"
     inkscape:window-x="0"
     inkscape:window-y="0"
     inkscape:window-maximized="1"
     inkscape:current-layer="svg16" />
  <g
     fill="#2e3436"
     id="g14"
     style="fill:#1f1f1f;fill-opacity:1">
    <path
       d="m7 2h8v2h-8z"
       id="path2"
       style="fill:#1f1f1f;fill-opacity:1" />
    <path
       d="m7 7h8v2h-8z"
       id="path4"
       style="fill:#1f1f1f;fill-opacity:1" />
    <path
       d="M 2,1 H 4 C 4.9940368,1 5,0.98790823 5,2 V 4 C 5,5.0016136 5.012113,5 4,5 H 2 C 0.99580681,5 1,5.0037081 1,4 V 2 C 1,0.99961401 1.0011195,1 2,1 Z"
       id="path6"
       sodipodi:nodetypes="sssssssss"
       style="fill:#1f1f1f;fill-opacity:1" />
    <path
       d="m 2,6.0156 h 2 c 0.9960331,0 1,-0.001 1,1 v 1.9805 c 0,0.9923143 0.00284,1 -1,1 H 2 c -0.9920183,0 -1,-0.00251 -1,-1 V 7.0156 c 0,-0.9939703 0.00267,-1 1,-1 z"
       id="path8"
       sodipodi:nodetypes="sssssssss"
       style="fill:#1f1f1f;fill-opacity:1" />
    <path
       d="m7 11.984h8v2h-8z"
       id="path10"
       style="fill:#1f1f1f;fill-opacity:1" />
    <path
       d="m 2,11 h 2 c 0.9967999,0 1,-0.0049 1,1 v 1.9805 c 0,0.995609 0.00748,1 -1,1 H 2 c -1.0044422,0 -1,-0.01071 -1,-1 V 12 c 0,-0.999514 0.00635,-1 1,-1 z"
       id="path12"
       sodipodi:nodetypes="sssssssss"
       style="fill:#1f1f1f;fill-opacity:1" />
  </g>
</svg>
