<?xml version="1.0" encoding="UTF-8" standalone="no"?>
<svg
   width="16px"
   height="16px"
   viewBox="0 0 16 16"
   version="1.1"
   id="svg8"
   sodipodi:docname="edit-find-symbolic.svg"
   inkscape:version="1.1.2 (0a00cf5339, 2022-02-04)"
   xmlns:inkscape="http://www.inkscape.org/namespaces/inkscape"
   xmlns:sodipodi="http://sodipodi.sourceforge.net/DTD/sodipodi-0.dtd"
   xmlns="http://www.w3.org/2000/svg"
   xmlns:svg="http://www.w3.org/2000/svg">
  <defs
     id="defs12" />
  <sodipodi:namedview
     id="namedview10"
     pagecolor="#ffffff"
     bordercolor="#666666"
     borderopacity="1.0"
     inkscape:pageshadow="2"
     inkscape:pageopacity="0.0"
     inkscape:pagecheckerboard="0"
     showgrid="false"
     inkscape:zoom="40.875"
     inkscape:cx="8"
     inkscape:cy="8"
     inkscape:window-width="1600"
     inkscape:window-height="832"
     inkscape:window-x="0"
     inkscape:window-y="0"
     inkscape:window-maximized="1"
     inkscape:current-layer="svg8" />
  <g
     fill="#2e3436"
     id="g6"
     style="fill:#1f1f1f;fill-opacity:1">
    <path
       d="m10.805 10c-0.8125 0.14453-1.1055 1.1562-0.5 1.7188l3 3c0.95703 0.9375 2.3633-0.5 1.4062-1.4375l-3-3c-0.23828-0.24219-0.57813-0.34766-0.90625-0.28125z"
       id="path2"
       style="fill:#1f1f1f;fill-opacity:1" />
    <path
       d="m6.5 0c-3.5781 0-6.5 2.9219-6.5 6.5s2.9219 6.4961 6.5 6.4961 6.5-2.918 6.5-6.4961-2.9219-6.5-6.5-6.5zm0 2c2.4961 0 4.5 2.0039 4.5 4.5s-2.0039 4.4961-4.5 4.4961-4.5-2-4.5-4.4961 2.0039-4.5 4.5-4.5z"
       id="path4"
       style="fill:#1f1f1f;fill-opacity:1" />
  </g>
</svg>
