<?xml version="1.0" encoding="UTF-8" standalone="no"?>
<svg
   height="16"
   width="16"
   version="1.1"
   id="svg4"
   sodipodi:docname="sidebar-hide-symbolic.svg"
   inkscape:version="1.1.2 (0a00cf5339, 2022-02-04)"
   xmlns:inkscape="http://www.inkscape.org/namespaces/inkscape"
   xmlns:sodipodi="http://sodipodi.sourceforge.net/DTD/sodipodi-0.dtd"
   xmlns="http://www.w3.org/2000/svg"
   xmlns:svg="http://www.w3.org/2000/svg">
  <defs
     id="defs8" />
  <sodipodi:namedview
     id="namedview6"
     pagecolor="#ffffff"
     bordercolor="#666666"
     borderopacity="1.0"
     inkscape:pageshadow="2"
     inkscape:pageopacity="0.0"
     inkscape:pagecheckerboard="0"
     showgrid="false"
     inkscape:zoom="40.875"
     inkscape:cx="8"
     inkscape:cy="8"
     inkscape:window-width="1600"
     inkscape:window-height="832"
     inkscape:window-x="0"
     inkscape:window-y="0"
     inkscape:window-maximized="1"
     inkscape:current-layer="svg4" />
  <path
     d="m0 3.001v10c0 1.291 0.7984 2 2 2h12c1.202 0 2-0.709 2-2v-10c0-1.3899-0.67795-2-2-2-3.8868 0.0113-9.027 2e-7 -12 0-1.2712 0-2 0.71185-2 2zm14 0v10h-12v-10zm-10.75 4.3125c-0.1555 0.1375-0.25 0.4063-0.25 0.6875s0.0945 0.55 0.25 0.6875l3.75 3.3125h1v-8l-0.9166 0.0002z"
     fill="#bebebe"
     id="path2"
     style="fill:#1f1f1f;fill-opacity:1" />
</svg>
