<?xml version="1.0" encoding="UTF-8" standalone="no"?>
<svg
   width="16px"
   height="16px"
   viewBox="0 0 16 16"
   version="1.1"
   id="svg12"
   sodipodi:docname="view-grid-symbolic.svg"
   inkscape:version="1.1.2 (0a00cf5339, 2022-02-04)"
   xmlns:inkscape="http://www.inkscape.org/namespaces/inkscape"
   xmlns:sodipodi="http://sodipodi.sourceforge.net/DTD/sodipodi-0.dtd"
   xmlns="http://www.w3.org/2000/svg"
   xmlns:svg="http://www.w3.org/2000/svg">
  <defs
     id="defs16" />
  <sodipodi:namedview
     id="namedview14"
     pagecolor="#ffffff"
     bordercolor="#666666"
     borderopacity="1.0"
     inkscape:pageshadow="2"
     inkscape:pageopacity="0.0"
     inkscape:pagecheckerboard="0"
     showgrid="false"
     inkscape:zoom="33.206644"
     inkscape:cx="7.2274693"
     inkscape:cy="7.9201017"
     inkscape:window-width="1600"
     inkscape:window-height="832"
     inkscape:window-x="0"
     inkscape:window-y="0"
     inkscape:window-maximized="1"
     inkscape:current-layer="svg12" />
  <g
     fill="#2e3436"
     id="g10"
     style="fill:#1f1f1f;fill-opacity:1">
    <path
       d="m 2,1 h 4 c 0.9920406,0 1,0.00195 1,1 V 6 C 7,6.9972311 6.9894109,7 6,7 H 2 C 1.008856,7 1,6.994265 1,6 V 2 C 1,0.9947266 1.0025272,1 2,1 Z"
       id="path2"
       sodipodi:nodetypes="sssssssss"
       style="fill:#1f1f1f;fill-opacity:1" />
    <path
       d="m 10,1 h 4 c 1.002192,0 1,0.010105 1,1 v 4 c 0,0.9884403 0.0065,1 -1,1 H 10 C 9.003837,7 9,6.9924809 9,6 V 2 c 0,-1.00498111 0.0013,-1 1,-1 z"
       id="path4"
       sodipodi:nodetypes="sssssssss"
       style="fill:#1f1f1f;fill-opacity:1" />
    <path
       d="m 2,9 h 4 c 0.9989848,0 1,0.00476 1,1 v 4 c 0,1.010936 -2.8e-5,1 -1,1 H 2 C 1.0008943,15 1,15.00337 1,14 V 10 C 1,8.9979059 0.99013522,9 2,9 Z"
       id="path6"
       sodipodi:nodetypes="sssssssss"
       style="fill:#1f1f1f;fill-opacity:1" />
    <path
       d="m 10,9 h 4 c 0.995552,0 1,0.0051 1,1 v 4 c 0,1.002261 -0.0077,1 -1,1 h -4 c -1.0030134,0 -1,0.0058 -1,-1 v -4 c 0,-0.9981672 0.00815,-1 1,-1 z"
       id="path8"
       sodipodi:nodetypes="sssssssss"
       style="fill:#1f1f1f;fill-opacity:1" />
  </g>
</svg>
