<?xml version="1.0" encoding="UTF-8" standalone="no"?>
<!-- Created with Inkscape (http://www.inkscape.org/) -->

<svg
   width="74.303719mm"
   height="84.918533mm"
   viewBox="0 0 74.303717 84.918542"
   version="1.1"
   id="svg5520"
   inkscape:version="1.1.2 (0a00cf5339, 2022-02-04)"
   sodipodi:docname="add-new-file.svg"
   xmlns:inkscape="http://www.inkscape.org/namespaces/inkscape"
   xmlns:sodipodi="http://sodipodi.sourceforge.net/DTD/sodipodi-0.dtd"
   xmlns="http://www.w3.org/2000/svg"
   xmlns:svg="http://www.w3.org/2000/svg">
  <sodipodi:namedview
     id="namedview5522"
     pagecolor="#ffffff"
     bordercolor="#666666"
     borderopacity="1.0"
     inkscape:pageshadow="2"
     inkscape:pageopacity="0.0"
     inkscape:pagecheckerboard="0"
     inkscape:document-units="mm"
     showgrid="false"
     inkscape:zoom="0.58261785"
     inkscape:cx="65.222856"
     inkscape:cy="298.65203"
     inkscape:window-width="1600"
     inkscape:window-height="832"
     inkscape:window-x="0"
     inkscape:window-y="0"
     inkscape:window-maximized="1"
     inkscape:current-layer="layer1" />
  <defs
     id="defs5517" />
  <g
     inkscape:label="Calque 1"
     inkscape:groupmode="layer"
     id="layer1"
     transform="translate(-87.366026,-69.660235)">
    <g
       id="g5908"
       transform="matrix(5.3074083,0,0,5.3074083,82.058618,69.660235)"
       style="fill:#1f1f1f;fill-opacity:1;stroke:none;stroke-opacity:1">
      <path
         transform="matrix(0,1,1,0,-728,-250)"
         d="m 262,736 v 6"
         fill="none"
         stroke="#2e3436"
         stroke-linecap="square"
         stroke-width="2"
         id="path5893"
         style="fill:#1f1f1f;fill-opacity:1;stroke:#000000;stroke-opacity:1" />
      <path
         d="M 1,1 C 1,0.44922 1.44922,0 2,0 h 9 c 0.26562,0 0.51953,0.10547 0.70703,0.29297 l 3,3 C 14.89453,3.48047 15,3.73438 15,4 V 8 H 13 V 4.4141 L 10.5859,2 H 3 v 12 h 4 v 2 H 2 C 1.44922,16 1,15.55078 1,15 Z"
         fill="#2e3436"
         fill-rule="evenodd"
         id="path5895"
         style="fill:#1f1f1f;fill-opacity:1;stroke:none;stroke-opacity:1" />
      <path
         transform="matrix(0,1,1,0,-728,-250)"
         d="m 259,739 h 6"
         fill="none"
         stroke="#2e3436"
         stroke-linecap="square"
         stroke-width="2"
         id="path5897"
         style="fill:#1f1f1f;fill-opacity:1;stroke:#000000;stroke-opacity:1" />
    </g>
  </g>
</svg>
