<?xml version="1.0" encoding="UTF-8" standalone="no"?>
<svg
   width="16"
   height="16"
   version="1.1"
   id="svg8"
   sodipodi:docname="document-open-recent-symbolic.svg"
   inkscape:version="1.1.2 (0a00cf5339, 2022-02-04)"
   xmlns:inkscape="http://www.inkscape.org/namespaces/inkscape"
   xmlns:sodipodi="http://sodipodi.sourceforge.net/DTD/sodipodi-0.dtd"
   xmlns="http://www.w3.org/2000/svg"
   xmlns:svg="http://www.w3.org/2000/svg">
  <defs
     id="defs12" />
  <sodipodi:namedview
     id="namedview10"
     pagecolor="#ffffff"
     bordercolor="#666666"
     borderopacity="1.0"
     inkscape:pageshadow="2"
     inkscape:pageopacity="0.0"
     inkscape:pagecheckerboard="0"
     showgrid="false"
     inkscape:zoom="40.875"
     inkscape:cx="8"
     inkscape:cy="7.1192661"
     inkscape:window-width="1600"
     inkscape:window-height="832"
     inkscape:window-x="0"
     inkscape:window-y="0"
     inkscape:window-maximized="1"
     inkscape:current-layer="svg8" />
  <g
     fill="#474747"
     font-family="Sans"
     font-weight="400"
     id="g6"
     style="fill:#1f1f1f;fill-opacity:1">
    <path
       d="M8.487.02A7.492 7.492 0 001 7.507a7.492 7.492 0 007.487 7.486 7.492 7.492 0 007.486-7.486A7.492 7.492 0 008.487.02zm0 1.973A5.508 5.508 0 0114 7.507a5.508 5.508 0 01-5.513 5.513 5.508 5.508 0 01-5.514-5.513 5.508 5.508 0 015.514-5.514z"
       overflow="visible"
       style="text-decoration-line:none;text-indent:0;text-transform:none;fill:#1f1f1f;fill-opacity:1"
       id="path2" />
    <path
       d="M11.393 4.007a.5.5 0 00-.25.156L8.487 6.819 6.83 5.163a.5.5 0 10-.687.687l2 2a.5.5 0 00.687 0l3-3a.5.5 0 00-.437-.843z"
       overflow="visible"
       style="text-decoration-line:none;text-indent:0;text-transform:none;fill:#1f1f1f;fill-opacity:1"
       id="path4" />
  </g>
</svg>
