<?xml version="1.0" encoding="UTF-8" standalone="no"?>
<svg
   height="16"
   width="16"
   version="1.1"
   id="svg4"
   sodipodi:docname="sidebar-places-symbolic.svg"
   inkscape:version="1.1.2 (0a00cf5339, 2022-02-04)"
   xmlns:inkscape="http://www.inkscape.org/namespaces/inkscape"
   xmlns:sodipodi="http://sodipodi.sourceforge.net/DTD/sodipodi-0.dtd"
   xmlns="http://www.w3.org/2000/svg"
   xmlns:svg="http://www.w3.org/2000/svg">
  <defs
     id="defs8" />
  <sodipodi:namedview
     id="namedview6"
     pagecolor="#ffffff"
     bordercolor="#666666"
     borderopacity="1.0"
     inkscape:pageshadow="2"
     inkscape:pageopacity="0.0"
     inkscape:pagecheckerboard="0"
     showgrid="false"
     inkscape:zoom="40.875"
     inkscape:cx="8"
     inkscape:cy="8"
     inkscape:window-width="1600"
     inkscape:window-height="832"
     inkscape:window-x="0"
     inkscape:window-y="0"
     inkscape:window-maximized="1"
     inkscape:current-layer="svg4" />
  <path
     d="m0.94925 2c-1.001 0-0.94915 0.7109-0.94915 1l-0.0001 11c0 0.9765 0.4641 1 1 1h14c0.53589 0 1-0.074 1-1l0.0001-6c0-1-0.41426-1-1-1h-11v5c0 0.277 0.000025 1-0.49992 1-0.5 0-0.50002-0.72266-0.50002-1v-5c0-1 0.4433-1 1-1h10v-1c0-0.5984 0-1-1-1h-7v-1c0-0.2892-0.0244-1-1-1z"
     fill="#bebebe"
     id="path2"
     style="fill:#1f1f1f;fill-opacity:1" />
</svg>
