<?xml version="1.0" encoding="UTF-8" standalone="no"?>
<!-- Created with Inkscape (http://www.inkscape.org/) -->

<svg
   width="85.222054mm"
   height="91.309341mm"
   viewBox="0 0 85.222051 91.30935"
   version="1.1"
   id="svg5520"
   inkscape:version="1.1.2 (0a00cf5339, 2022-02-04)"
   sodipodi:docname="copy.svg"
   xmlns:inkscape="http://www.inkscape.org/namespaces/inkscape"
   xmlns:sodipodi="http://sodipodi.sourceforge.net/DTD/sodipodi-0.dtd"
   xmlns="http://www.w3.org/2000/svg"
   xmlns:svg="http://www.w3.org/2000/svg">
  <sodipodi:namedview
     id="namedview5522"
     pagecolor="#ffffff"
     bordercolor="#666666"
     borderopacity="1.0"
     inkscape:pageshadow="2"
     inkscape:pageopacity="0.0"
     inkscape:pagecheckerboard="0"
     inkscape:document-units="mm"
     showgrid="false"
     inkscape:zoom="0.58261785"
     inkscape:cx="84.103157"
     inkscape:cy="255.74225"
     inkscape:window-width="1600"
     inkscape:window-height="832"
     inkscape:window-x="0"
     inkscape:window-y="0"
     inkscape:window-maximized="1"
     inkscape:current-layer="layer1" />
  <defs
     id="defs5517" />
  <g
     inkscape:label="Calque 1"
     inkscape:groupmode="layer"
     id="layer1"
     transform="translate(-82.164758,-80.787832)">
    <g
       fill="#2e3436"
       id="g6491"
       transform="matrix(6.0872894,0,0,6.0872894,76.077469,74.700543)"
       style="fill:#1f1f1f;fill-opacity:1">
      <path
         d="m 6,16 h 6 l 3,-3 V 6 C 15,5.44922 14.55078,5 14,5 H 6 C 5.44922,5 5,5.44922 5,6 v 9 c 0,0.55078 0.44922,1 1,1 z"
         id="path6487"
         style="fill:#1f1f1f;fill-opacity:1" />
      <path
         d="M 2,12 H 4 V 6 C 4,4.8945 4.89453,4 6,4 h 5 V 2 C 11,1.44922 10.55078,1 10,1 H 2 C 1.44922,1 1.00391,1.44531 1.00391,1.99609 L 1,10.99999 c 0,0.55078 0.44922,1 1,1 z"
         id="path6489"
         style="fill:#1f1f1f;fill-opacity:1" />
    </g>
  </g>
</svg>
