<?xml version="1.0" encoding="UTF-8" standalone="no"?>
<svg
   width="14.591188"
   height="20.001038"
   viewBox="0 0 14.591188 20.001038"
   version="1.1"
   id="svg4"
   sodipodi:docname="bluetooth.svg"
   inkscape:version="1.1.2 (0a00cf5339, 2022-02-04)"
   xmlns:inkscape="http://www.inkscape.org/namespaces/inkscape"
   xmlns:sodipodi="http://sodipodi.sourceforge.net/DTD/sodipodi-0.dtd"
   xmlns="http://www.w3.org/2000/svg"
   xmlns:svg="http://www.w3.org/2000/svg">
  <defs
     id="defs8" />
  <sodipodi:namedview
     id="namedview6"
     pagecolor="#ffffff"
     bordercolor="#666666"
     borderopacity="1.0"
     inkscape:pageshadow="2"
     inkscape:pageopacity="0.0"
     inkscape:pagecheckerboard="0"
     showgrid="false"
     inkscape:zoom="15.647845"
     inkscape:cx="4.7290855"
     inkscape:cy="3.7704871"
     inkscape:window-width="1600"
     inkscape:window-height="832"
     inkscape:window-x="0"
     inkscape:window-y="0"
     inkscape:window-maximized="1"
     inkscape:current-layer="svg4" />
  <path
     d="m 0,14.193061 1.18,1.615 4.41,-3.223 v 6.416 a 1,1 0 0 0 1.541,0.841 l 7,-4.5 a 0.999,0.999 0 0 0 0.049,-1.649 l -5.053,-3.692 5.053,-3.6919999 a 1.002,1.002 0 0 0 -0.049,-1.65 l -7,-4.49999999 a 1.002,1.002 0 0 0 -1.021,-0.037 c -0.32,0.176 -0.52,0.513 -0.52,0.87899999 v 6.416 l -4.41,-3.224 -1.18,1.616 5.59,4.085 v 0.2149999 z m 7.59,-11.3599999 4.232,2.721 -4.232,3.093 z m 0,8.5219999 4.232,3.093 -4.232,2.721 z"
     id="path2"
     style="fill:#fefefe;fill-opacity:1" />
</svg>
