<?xml version="1.0" encoding="UTF-8" standalone="no"?>
<svg
   width="21.414"
   height="16"
   viewBox="0 0 21.414 16"
   version="1.1"
   id="svg8"
   sodipodi:docname="wifi.svg"
   inkscape:version="1.1.2 (0a00cf5339, 2022-02-04)"
   xmlns:inkscape="http://www.inkscape.org/namespaces/inkscape"
   xmlns:sodipodi="http://sodipodi.sourceforge.net/DTD/sodipodi-0.dtd"
   xmlns="http://www.w3.org/2000/svg"
   xmlns:svg="http://www.w3.org/2000/svg">
  <defs
     id="defs12" />
  <sodipodi:namedview
     id="namedview10"
     pagecolor="#ffffff"
     bordercolor="#666666"
     borderopacity="1.0"
     inkscape:pageshadow="2"
     inkscape:pageopacity="0.0"
     inkscape:pagecheckerboard="0"
     showgrid="false"
     inkscape:zoom="16.770946"
     inkscape:cx="10.673221"
     inkscape:cy="7.9900087"
     inkscape:window-width="1600"
     inkscape:window-height="832"
     inkscape:window-x="0"
     inkscape:window-y="0"
     inkscape:window-maximized="1"
     inkscape:current-layer="svg8" />
  <path
     d="M 10.707,2 C 14.244,2 17.544,3.353 20,5.809 L 21.414,4.395 C 18.581,1.561 14.778,0 10.707,0 6.636,0.001 2.833,1.561 0,4.395 L 1.414,5.809 C 3.87,3.353 7.17,2 10.707,2 Z m 5.671,8.307 C 13.304,7.233 8.11,7.233 5.036,10.307 l 1.414,1.414 c 2.307,-2.307 6.207,-2.307 8.514,0 z"
     id="path2"
     style="fill:#fefefe;fill-opacity:1" />
  <path
     d="M 19.144,7.293 C 14.572,2.719 6.843,2.719 2.271,7.293 L 3.685,8.707 C 7.492,4.9 13.923,4.9 17.73,8.707 Z"
     id="path4"
     style="fill:#fefefe;fill-opacity:1" />
  <circle
     cx="10.707"
     cy="14"
     r="2"
     id="circle6"
     style="fill:#fefefe;fill-opacity:1" />
</svg>
