<?xml version="1.0" encoding="UTF-8" standalone="no"?>
<!-- Created with Inkscape (http://www.inkscape.org/) -->

<svg
   width="47.197323mm"
   height="80.286285mm"
   viewBox="0 0 47.197323 80.286285"
   version="1.1"
   id="svg5"
   xmlns="http://www.w3.org/2000/svg"
   xmlns:svg="http://www.w3.org/2000/svg">
  <defs
     id="defs2" />
  <g
     id="layer1"
     transform="translate(-75.57559,-70.842299)">
    <path
       style="fill:#d7d7d7;fill-opacity:1;fill-rule:evenodd;stroke-width:1.37061;stroke-linecap:round;stroke-linejoin:round"
       d="m 310.88121,267.75893 c -8.77779,-0.1314 -17.39994,4.71119 -21.64645,12.43148 -5.79167,9.32449 -4.4909,22.44859 3.22326,30.31102 20.20701,20.57344 40.92755,40.6419 61.34744,61.00612 16.17022,16.01833 32.3062,32.06679 48.42112,48.14115 -35.16612,35.67538 -70.43526,71.25243 -105.51908,107.00644 -4.54066,4.02347 -7.26486,9.78325 -8.21939,15.71446 -0.75,7.426 1.26192,15.35427 6.69775,20.69408 3.71494,4.34963 9.16473,6.9146 14.70791,7.96127 6.0349,0.54938 12.43964,-0.13065 17.58442,-3.59141 5.85381,-4.45813 10.70806,-10.08554 16.02746,-15.14537 38.64405,-38.75839 77.30179,-77.50709 115.94399,-116.26582 2.5116,-4.74595 4.90882,-9.86391 4.53536,-15.38101 0.14153,-7.17042 -3.17529,-14.15736 -8.45639,-18.94143 -36.63825,-37.19281 -73.65375,-74.01455 -110.52671,-110.97584 -6.83329,-6.57838 -13.24696,-13.66677 -20.7282,-19.52693 -3.91441,-2.5286 -8.77106,-3.55207 -13.39249,-3.43821 z"
       id="path912"
       transform="scale(0.26458333)" />
  </g>
</svg>
