<?xml version="1.0" encoding="UTF-8" standalone="no"?>
<!-- Created with Inkscape (http://www.inkscape.org/) -->

<svg
   width="120.07255mm"
   height="120.07255mm"
   viewBox="0 0 120.07255 120.07255"
   version="1.1"
   id="svg10496"
   inkscape:version="1.1.2 (0a00cf5339, 2022-02-04)"
   sodipodi:docname="call.svg"
   xmlns:inkscape="http://www.inkscape.org/namespaces/inkscape"
   xmlns:sodipodi="http://sodipodi.sourceforge.net/DTD/sodipodi-0.dtd"
   xmlns="http://www.w3.org/2000/svg"
   xmlns:svg="http://www.w3.org/2000/svg">
  <sodipodi:namedview
     id="namedview10498"
     pagecolor="#ffffff"
     bordercolor="#666666"
     borderopacity="1.0"
     inkscape:pageshadow="2"
     inkscape:pageopacity="0.0"
     inkscape:pagecheckerboard="0"
     inkscape:document-units="mm"
     showgrid="false"
     inkscape:zoom="0.58261785"
     inkscape:cx="245.44391"
     inkscape:cy="-49.775338"
     inkscape:window-width="1600"
     inkscape:window-height="832"
     inkscape:window-x="0"
     inkscape:window-y="0"
     inkscape:window-maximized="1"
     inkscape:current-layer="layer1" />
  <defs
     id="defs10493" />
  <g
     inkscape:label="Calque 1"
     inkscape:groupmode="layer"
     id="layer1"
     transform="translate(-39.871987,-161.5784)">
    <g
       id="g2557"
       transform="translate(193.17159,77.56434)">
      <circle
         style="opacity:1;fill:#65c466;fill-opacity:1;fill-rule:evenodd;stroke-width:1.2;stroke-linecap:round;stroke-linejoin:round"
         id="path1108"
         cx="-93.263329"
         cy="144.05034"
         r="60.036274" />
      <path
         style="opacity:1;fill:#ffffff;fill-opacity:1;fill-rule:evenodd;stroke-width:2.05967;stroke-linecap:round;stroke-linejoin:round"
         d="m -109.58118,118.21518 c -5.61045,0.84386 -9.08043,7.16715 -8.55482,12.51337 1.02879,9.97568 8.13656,17.9797 14.91085,24.79523 6.360873,5.91484 13.870713,11.91485 22.852773,12.67214 5.49351,0.36126 11.69447,-3.64372 12.10359,-9.40809 -0.54486,-3.93436 -4.9846,-5.52016 -7.73704,-7.7397 -2.38637,-1.34585 -5.76219,-4.31734 -8.36235,-1.7358 -1.40049,0.81314 -2.6294,3.03731 -4.38074,2.84806 -5.16843,-3.50217 -10.01562,-7.91192 -13.279713,-13.26729 -0.70958,-3.28007 4.734943,-4.73664 3.623273,-8.16012 -1.32912,-3.83039 -4.406863,-6.71562 -6.604383,-10.05646 -1.13661,-1.34366 -2.70325,-2.60691 -4.57144,-2.46134 z"
         id="path967" />
    </g>
  </g>
</svg>
