<svg xmlns="http://www.w3.org/2000/svg" width="120" height="120" id="camera"><defs><linearGradient id="a" x1="50%" x2="50%" y1="0%" y2="100%"><stop offset="0%" stop-color="#E3E2E4"></stop><stop offset="100%" stop-color="#9DA0A4"></stop></linearGradient><linearGradient id="b" x1="50%" x2="46.471%" y1="-124.2%" y2="207.672%"><stop offset="0%" stop-color="#E3E2E4"></stop><stop offset="100%" stop-color="#9DA0A4"></stop></linearGradient></defs><g fill="none" fill-rule="evenodd"><rect width="120" height="120" fill="url(#a)" rx="28"></rect><path fill="#2F2E32" d="M21.179 36.1H97.82c2.86 0 5.179 2.049 5.179 4.576v44.848c0 2.527-2.319 4.576-5.179 4.576H21.18c-2.86 0-5.179-2.049-5.179-4.576V40.676c0-2.527 2.319-4.576 5.179-4.576zm12.818-.055C45.67 36.135 39.903 26.1 52 26.1h8v10l-26.003-.055zm52.006 0L60 36.1v-10h8c12.097 0 6.329 10.034 18.003 9.945zM27 30.1h6a1 1 0 0 1 1 1v2a1 1 0 0 1-1 1h-6a1 1 0 0 1-1-1v-2a1 1 0 0 1 1-1z"></path><g transform="translate(41 43)"><path fill="url(#b)" fill-rule="nonzero" d="M18.5 35C27.06 35 34 28.06 34 19.5 34 10.94 27.06 4 18.5 4 9.94 4 3 10.94 3 19.5 3 28.06 9.94 35 18.5 35zm0 3C8.283 38 0 29.717 0 19.5S8.283 1 18.5 1 37 9.283 37 19.5 28.717 38 18.5 38z"></path><circle cx="40.5" cy="2.5" r="2.5" fill="#FFD433"></circle></g></g></svg>