<?xml version="1.0" encoding="UTF-8" standalone="no"?>
<!-- Created with Inkscape (http://www.inkscape.org/) -->

<svg
   width="127mm"
   height="93.133331mm"
   viewBox="0 0 127 93.133331"
   version="1.1"
   id="svg4066"
   inkscape:version="1.1.2 (0a00cf5339, 2022-02-04)"
   sodipodi:docname="cellularb.svg"
   xmlns:inkscape="http://www.inkscape.org/namespaces/inkscape"
   xmlns:sodipodi="http://sodipodi.sourceforge.net/DTD/sodipodi-0.dtd"
   xmlns="http://www.w3.org/2000/svg"
   xmlns:svg="http://www.w3.org/2000/svg">
  <sodipodi:namedview
     id="namedview4068"
     pagecolor="#ffffff"
     bordercolor="#666666"
     borderopacity="1.0"
     inkscape:pageshadow="2"
     inkscape:pageopacity="0.0"
     inkscape:pagecheckerboard="0"
     inkscape:document-units="mm"
     showgrid="false"
     inkscape:zoom="0.58261785"
     inkscape:cx="197.38496"
     inkscape:cy="151.0424"
     inkscape:window-width="1600"
     inkscape:window-height="832"
     inkscape:window-x="0"
     inkscape:window-y="0"
     inkscape:window-maximized="1"
     inkscape:current-layer="layer1" />
  <defs
     id="defs4063" />
  <g
     inkscape:label="Calque 1"
     inkscape:groupmode="layer"
     id="layer1"
     transform="translate(303.27982,-135.99297)">
    <path
       d="m -182.62982,229.1263 h -12.7 a 6.3499999,6.3499999 0 0 1 -6.35,-6.35 v -80.43333 a 6.3499999,6.3499999 0 0 1 6.35,-6.35 h 12.7 a 6.3499999,6.3499999 0 0 1 6.35,6.35 v 80.43333 a 6.3499999,6.3499999 0 0 1 -6.35,6.35 z"
       id="path4127"
       style="fill:#e5dfd3;fill-opacity:0.8;stroke-width:0.264583" />
    <path
       d="m -216.49648,229.1263 h -12.7 a 6.3499999,6.3499999 0 0 1 -6.35,-6.35 v -59.26667 a 6.3499999,6.3499999 0 0 1 6.35,-6.35 h 12.7 a 6.3499999,6.3499999 0 0 1 6.35,6.35 v 59.26667 a 6.3499999,6.3499999 0 0 1 -6.35,6.35 z"
       id="path4129"
       style="fill:#000000;stroke-width:0.264583" />
    <path
       d="m -250.36315,229.1263 h -12.7 a 6.3499999,6.3499999 0 0 1 -6.35,-6.35 v -42.33333 a 6.3499999,6.3499999 0 0 1 6.35,-6.35 h 12.7 a 6.3499999,6.3499999 0 0 1 6.35,6.35 v 42.33333 a 6.3499999,6.3499999 0 0 1 -6.35,6.35 z"
       id="path4131"
       style="fill:#000000;stroke-width:0.264583" />
    <path
       d="m -284.22982,229.1263 h -12.7 a 6.3499999,6.3499999 0 0 1 -6.35,-6.35 v -25.4 a 6.3499999,6.3499999 0 0 1 6.35,-6.35 h 12.7 a 6.3499999,6.3499999 0 0 1 6.35,6.35 v 25.4 a 6.3499999,6.3499999 0 0 1 -6.35,6.35 z"
       id="path4133"
       style="fill:#000000;stroke-width:0.264583" />
  </g>
</svg>
