<?xml version="1.0" encoding="UTF-8" standalone="no"?>
<!-- Created with Inkscape (http://www.inkscape.org/) -->

<svg
   width="13.286357mm"
   height="13.005804mm"
   viewBox="0 0 13.286357 13.005804"
   version="1.1"
   id="svg51116"
   inkscape:version="1.1.2 (0a00cf5339, 2022-02-04)"
   sodipodi:docname="favoriteb.svg"
   xmlns:inkscape="http://www.inkscape.org/namespaces/inkscape"
   xmlns:sodipodi="http://sodipodi.sourceforge.net/DTD/sodipodi-0.dtd"
   xmlns="http://www.w3.org/2000/svg"
   xmlns:svg="http://www.w3.org/2000/svg">
  <sodipodi:namedview
     id="namedview51118"
     pagecolor="#ffffff"
     bordercolor="#666666"
     borderopacity="1.0"
     inkscape:pageshadow="2"
     inkscape:pageopacity="0.0"
     inkscape:pagecheckerboard="0"
     inkscape:document-units="mm"
     showgrid="false"
     inkscape:zoom="0.58261785"
     inkscape:cx="-41.193383"
     inkscape:cy="324.39789"
     inkscape:window-width="1600"
     inkscape:window-height="832"
     inkscape:window-x="0"
     inkscape:window-y="0"
     inkscape:window-maximized="1"
     inkscape:current-layer="layer1" />
  <defs
     id="defs51113" />
  <g
     inkscape:label="Calque 1"
     inkscape:groupmode="layer"
     id="layer1"
     transform="translate(-115.9715,-62.524625)">
    <path
       id="path11662"
       style="fill:#007aff;fill-opacity:1;fill-rule:evenodd;stroke-width:0.893006;stroke-linecap:round;stroke-linejoin:round"
       inkscape:transform-center-x="-0.0044908182"
       inkscape:transform-center-y="-0.82568504"
       d="m 129.25474,67.48009 c 0.0316,0.62343 -0.11254,0.61664 -3.53371,3.12794 1.49139,4.46427 1.60369,4.56077 1.09958,4.85097 -0.5041,0.2902 -0.87319,-0.24771 -4.13119,-2.6561 -3.56391,2.567 -3.68572,2.91246 -4.16723,2.63104 -0.48151,-0.2814 -0.36555,-0.48354 1.14297,-4.83602 -3.51176,-2.6021 -3.71936,-2.62733 -3.69162,-3.06195 0.0277,-0.4346 0.56552,-0.47489 4.85413,-0.49567 1.19745,-4.14616 1.11154,-4.5129 1.81212,-4.51566 0.70058,-0.003 0.63346,0.43594 1.74612,4.59159 4.39062,0.0329 4.83725,-0.25951 4.86883,0.36386 z"
       sodipodi:nodetypes="zczczczczcz" />
  </g>
</svg>
