<svg xmlns="http://www.w3.org/2000/svg" width="120" height="120" id="ios-weather"><defs><linearGradient id="a" x1="50%" x2="50%" y1="0%" y2="100%"><stop offset="0%" stop-color="#008EE7"></stop><stop offset="100%" stop-color="#00D6FA"></stop></linearGradient><linearGradient id="b" x1="50%" x2="50%" y1="0%" y2="100%"><stop offset="0%" stop-color="#FFCC51"></stop><stop offset="100%" stop-color="#F2DA48"></stop></linearGradient></defs><g fill="none" fill-rule="evenodd"><rect width="120" height="120" fill="url(#a)" rx="28"></rect><circle cx="40" cy="50" r="22" fill="url(#b)"></circle><path fill="#FFF" d="M44 90h42v-.026c10.029-.52 18-8.816 18-18.974 0-10.493-8.507-19-19-19-1.389 0-2.743.15-4.048.432C78.195 44.051 70.304 38 61 38c-11.432 0-20.73 9.134-20.994 20.503C33.102 60.277 28 66.543 28 74c0 8.837 7.163 16 16 16z" opacity=".9"></path></g></svg>