<?xml version="1.0" encoding="UTF-8" standalone="no"?>
<!-- Created with Inkscape (http://www.inkscape.org/) -->

<svg
   width="7.6031199mm"
   height="5.8131599mm"
   viewBox="0 0 7.6031199 5.8131599"
   version="1.1"
   id="svg10428"
   inkscape:version="1.1.2 (0a00cf5339, 2022-02-04)"
   sodipodi:docname="mail-icon.svg"
   xmlns:inkscape="http://www.inkscape.org/namespaces/inkscape"
   xmlns:sodipodi="http://sodipodi.sourceforge.net/DTD/sodipodi-0.dtd"
   xmlns="http://www.w3.org/2000/svg"
   xmlns:svg="http://www.w3.org/2000/svg">
  <sodipodi:namedview
     id="namedview10430"
     pagecolor="#ffffff"
     bordercolor="#666666"
     borderopacity="1.0"
     inkscape:pageshadow="2"
     inkscape:pageopacity="0.0"
     inkscape:pagecheckerboard="0"
     inkscape:document-units="mm"
     showgrid="false"
     inkscape:zoom="2.4875"
     inkscape:cx="15.678392"
     inkscape:cy="-10.050251"
     inkscape:window-width="1600"
     inkscape:window-height="832"
     inkscape:window-x="0"
     inkscape:window-y="0"
     inkscape:window-maximized="1"
     inkscape:current-layer="layer1" />
  <defs
     id="defs10425" />
  <g
     inkscape:label="Calque 1"
     inkscape:groupmode="layer"
     id="layer1"
     transform="translate(-67.042477,-146.95581)">
    <g
       id="g10321"
       transform="translate(-51.447003,8.7147453)">
      <path
         style="opacity:1;fill:#dcdcdc;fill-opacity:1;stroke:none;stroke-width:0.264583px;stroke-linecap:butt;stroke-linejoin:miter;stroke-opacity:1"
         d="m 118.49148,138.80141 -0.002,4.82366 2.49887,-2.44239 z"
         id="path2812" />
      <path
         style="opacity:1;fill:#dcdcdc;fill-opacity:1;stroke:none;stroke-width:0.264583px;stroke-linecap:butt;stroke-linejoin:miter;stroke-opacity:1"
         d="m 126.0906,138.7641 0.002,4.82366 -2.49887,-2.44239 z"
         id="path2812-7" />
      <path
         style="opacity:1;fill:#dcdcdc;fill-opacity:1;stroke:none;stroke-width:0.381333px;stroke-linecap:butt;stroke-linejoin:miter;stroke-opacity:1"
         d="m 118.84085,138.24406 6.95215,-0.003 c 0,0 -1.61921,1.59857 -2.70888,2.71447 -0.30425,0.31157 -0.62363,0.45385 -0.78901,0.45378 -0.14774,-7e-5 -0.42007,-0.10875 -0.67751,-0.36932 -1.07209,-1.08507 -2.77675,-2.79593 -2.77675,-2.79593 z"
         id="path2812-7-5"
         sodipodi:nodetypes="ccsssc" />
      <path
         style="opacity:1;fill:#dcdcdc;fill-opacity:1;stroke:none;stroke-width:0.381333px;stroke-linecap:butt;stroke-linejoin:miter;stroke-opacity:1"
         d="m 118.88096,144.05371 6.88426,5.1e-4 c 0,0 -1.34904,-1.30358 -2.49749,-2.44244 0,0 -0.46354,0.51243 -0.99376,0.49974 -0.53023,-0.0127 -0.96239,-0.48607 -0.96239,-0.48607 -1.13169,1.15954 -2.43062,2.42826 -2.43062,2.42826 z"
         id="path2812-7-5-3"
         sodipodi:nodetypes="ccszsc" />
    </g>
  </g>
</svg>
