<?xml version="1.0" encoding="UTF-8" standalone="no"?>
<!-- Created with Inkscape (http://www.inkscape.org/) -->

<svg
   width="14.358759mm"
   height="18.029108mm"
   viewBox="0 0 14.358759 18.029108"
   version="1.1"
   id="svg1498"
   inkscape:version="1.1.2 (0a00cf5339, 2022-02-04)"
   sodipodi:docname="micro-mute.svg"
   xmlns:inkscape="http://www.inkscape.org/namespaces/inkscape"
   xmlns:sodipodi="http://sodipodi.sourceforge.net/DTD/sodipodi-0.dtd"
   xmlns="http://www.w3.org/2000/svg"
   xmlns:svg="http://www.w3.org/2000/svg">
  <sodipodi:namedview
     id="namedview1500"
     pagecolor="#ffffff"
     bordercolor="#666666"
     borderopacity="1.0"
     inkscape:pageshadow="2"
     inkscape:pageopacity="0.0"
     inkscape:pagecheckerboard="0"
     inkscape:document-units="mm"
     showgrid="false"
     inkscape:zoom="0.58261785"
     inkscape:cx="195.66857"
     inkscape:cy="-152.7588"
     inkscape:window-width="1600"
     inkscape:window-height="832"
     inkscape:window-x="0"
     inkscape:window-y="0"
     inkscape:window-maximized="1"
     inkscape:current-layer="layer1" />
  <defs
     id="defs1495" />
  <g
     inkscape:label="Calque 1"
     inkscape:groupmode="layer"
     id="layer1"
     transform="translate(-53.219698,-188.98544)">
    <g
       id="g1451"
       style="fill:#ffffff"
       transform="translate(136.51021,150.48612)">
      <path
         style="fill:#ffffff;fill-rule:evenodd;stroke-width:0.366429;stroke-linecap:round;stroke-linejoin:round"
         d="m -76.354406,38.504789 c -1.413608,-0.0718 -2.714675,1.20853 -2.631284,2.628286 -0.134641,0.527389 0.08636,0.923272 0.514808,1.224394 1.620067,1.575096 3.165644,3.233137 4.85082,4.737783 0.321607,-0.02795 0.05207,-0.880089 0.14609,-1.212578 -0.02527,-1.626391 0.104465,-3.263106 -0.05569,-4.883568 -0.132541,-0.526616 -0.219747,-1.077312 -0.604682,-1.496875 -0.509685,-0.709702 -1.360072,-1.05106 -2.220062,-0.997442 z"
         id="path1171" />
      <path
         style="fill:#ffffff;fill-rule:evenodd;stroke-width:0.366429;stroke-linecap:round;stroke-linejoin:round"
         d="m -82.890247,39.937913 c -0.376459,-0.004 -0.487177,0.572759 -0.332954,0.831437 4.037386,4.175696 8.1593,8.270478 12.290256,12.35338 0.437911,0.346263 0.78373,0.908844 1.343503,1.052994 0.365708,0.0531 0.904815,-0.429554 0.531622,-0.747805 -3.943924,-4.114716 -8.018938,-8.102645 -12.067534,-12.114266 -0.543759,-0.448966 -0.980009,-1.100801 -1.64102,-1.376214 -0.04125,-0.0029 -0.08258,-1.69e-4 -0.123873,5.29e-4 z"
         id="path1210" />
      <path
         style="fill:#ffffff;fill-rule:evenodd;stroke-width:0.366429;stroke-linecap:round;stroke-linejoin:round"
         d="m -78.971802,46.875981 c -0.126719,0.524793 -0.01733,1.127747 0.16537,1.636683 0.233894,0.488683 0.504994,1.018905 1.006438,1.260806 0.587256,0.378105 1.373698,0.568854 2.046168,0.370038 -0.03686,-0.358272 -0.466037,-0.587531 -0.663958,-0.872828 -0.827942,-0.808501 -1.599965,-1.71178 -2.520249,-2.40669 z"
         id="path1249" />
      <path
         style="fill:#ffffff;fill-rule:evenodd;stroke-width:0.366429;stroke-linecap:round;stroke-linejoin:round"
         d="m -70.901849,45.034949 c -0.627396,0.159875 -0.425876,0.966266 -0.465973,1.43754 0.04882,0.902829 -0.241279,1.780481 -0.236543,2.675628 0.28018,0.14306 0.612828,1.052544 0.890611,0.547875 0.487347,-1.05828 0.458827,-2.276239 0.495562,-3.420115 0.0079,-0.450427 0.03379,-1.164188 -0.56878,-1.233668 -0.03768,-0.0078 -0.0765,-0.01109 -0.114877,-0.0072 z"
         id="path1288" />
      <path
         style="fill:#ffffff;fill-rule:evenodd;stroke-width:0.366429;stroke-linecap:round;stroke-linejoin:round"
         d="m -81.82369,45.043157 c -0.622766,0.13735 -0.525089,0.888148 -0.51947,1.366057 0.01992,1.139346 0.04724,2.31572 0.478759,3.382877 0.348895,0.840076 0.954455,1.57329 1.611278,2.195918 0.127441,0.09024 0.260606,0.08998 0.33674,0.234174 0.20851,0.07537 0.356833,0.225325 0.522311,0.336426 0.480836,0.107789 0.903976,0.425947 1.408401,0.491966 0.367496,0.147966 1.105141,-0.05563 1.112584,0.523306 -0.0035,0.540123 0.07452,1.111809 -0.07338,1.633842 -1.09106,0.197943 -2.236166,-0.04919 -3.324807,0.17421 -0.526772,0.198667 -0.394126,1.149442 0.207031,1.100166 2.587101,0.08785 5.177986,0.01961 7.76651,0.0415 0.149823,-0.205994 0.690719,-0.556654 0.342107,-0.835856 -0.244764,-0.341458 -0.591789,-0.488423 -1.010066,-0.400965 -0.882531,-0.03675 -1.793563,0.07683 -2.660951,-0.08679 -0.119031,-0.609814 -0.137764,-1.301257 0.03755,-1.907304 0.456856,-0.273516 1.055523,-0.14872 1.538533,-0.389131 0.272516,-0.126563 0.654259,-0.207684 0.808559,-0.45004 -0.298418,-0.3565 -0.706017,-0.83887 -1.230829,-0.605629 -0.92593,0.369441 -1.962554,0.249558 -2.938356,0.206717 -0.38717,-0.02246 -0.708816,-0.246925 -1.080289,-0.328695 -1.182481,-0.553077 -2.096788,-1.628121 -2.463543,-2.885654 -0.226925,-0.705453 -0.09471,-1.50962 -0.15685,-2.252096 -0.09301,-0.457486 0.176773,-1.144866 -0.334534,-1.417815 -0.11738,-0.05657 -0.241604,-0.136729 -0.377296,-0.127185 z"
         id="path1327" />
    </g>
  </g>
</svg>
