<?xml version="1.0" encoding="UTF-8" standalone="no"?>
<!-- Created with Inkscape (http://www.inkscape.org/) -->

<svg
   width="20.452028mm"
   height="20.452028mm"
   viewBox="0 0 20.452028 20.452028"
   version="1.1"
   id="svg962"
   inkscape:version="1.1.2 (0a00cf5339, 2022-02-04)"
   sodipodi:docname="phone-icon.svg"
   xmlns:inkscape="http://www.inkscape.org/namespaces/inkscape"
   xmlns:sodipodi="http://sodipodi.sourceforge.net/DTD/sodipodi-0.dtd"
   xmlns="http://www.w3.org/2000/svg"
   xmlns:svg="http://www.w3.org/2000/svg">
  <sodipodi:namedview
     id="namedview964"
     pagecolor="#ffffff"
     bordercolor="#666666"
     borderopacity="1.0"
     inkscape:pageshadow="2"
     inkscape:pageopacity="0.0"
     inkscape:pagecheckerboard="0"
     inkscape:document-units="mm"
     showgrid="false"
     inkscape:zoom="0.58261785"
     inkscape:cx="204.25052"
     inkscape:cy="37.760601"
     inkscape:window-width="1600"
     inkscape:window-height="832"
     inkscape:window-x="0"
     inkscape:window-y="0"
     inkscape:window-maximized="1"
     inkscape:current-layer="layer1" />
  <defs
     id="defs959">
    <mask
       id="c"
       fill="#ffffff">
      <rect
         id="use10"
         width="120"
         height="120"
         x="0"
         y="0"
         rx="28" />
    </mask>
  </defs>
  <g
     inkscape:label="Calque 1"
     inkscape:groupmode="layer"
     id="layer1"
     transform="translate(-51.081325,-138.72811)">
    <path
       fill="#ffffff"
       d="m 56,47.5 v 13 H 46 c -6.09,0 -9.5,1.5 -10.5,9.5 0,2 -0.5,5 -3.5,6 L 16,79 C 11,79.5 9.547,78.496 8.5,76 2.005,60.511 18,48 56,47.5 Z m 0,0 C 94,48 109.995,60.511 103.5,76 102.453,78.496 101,79.5 96,79 L 80,76 C 77,75 76.5,72 76.5,70 75.5,62 72.09,60.5 66,60.5 H 56 Z"
       mask="url(#c)"
       transform="matrix(-0.18708867,-0.18708867,0.18708867,-0.18708867,58.772654,172.44274)"
       id="path15"
       style="fill:#949495;fill-opacity:1" />
  </g>
</svg>
