<svg xmlns="http://www.w3.org/2000/svg" width="120" height="120" viewBox="0 0 120 120" id="photos"><g fill="none" fill-rule="evenodd"><g><rect width="120" height="120" fill="#FFF" rx="28"></rect><g transform="translate(7 8)"><rect fill="#58B3E4" style="mix-blend-mode:multiply" width="32" height="49" x="37" y="56" rx="16"></rect><rect fill="#E084AE" style="mix-blend-mode:multiply" width="32" height="49" x="9" y="28" rx="16" transform="rotate(90 25 52.5)"></rect><rect fill="#FFB92E" style="mix-blend-mode:multiply" width="32" height="49" x="37" rx="16"></rect><rect fill="#BEDB4D" style="mix-blend-mode:multiply" width="32" height="49" x="65" y="28" rx="16" transform="rotate(90 81 52.5)"></rect><rect fill="#AE8ED0" style="mix-blend-mode:multiply" width="32" height="49" x="16.638" y="48.138" rx="16" transform="rotate(45 32.638 72.638)"></rect><rect fill="#FEE302" style="mix-blend-mode:multiply" width="32" height="49" x="56.638" y="8.138" rx="16" transform="rotate(45 72.638 32.638)"></rect><rect fill="#FA8554" style="mix-blend-mode:multiply" width="32" height="49" x="16.638" y="8.138" rx="16" transform="scale(-1 1) rotate(45 0 -46.157)"></rect><rect fill="#60CBA5" style="mix-blend-mode:multiply" width="32" height="49" x="56.638" y="48.138" rx="16" transform="scale(-1 1) rotate(45 0 -102.725)"></rect></g></g></g></svg>