<?xml version="1.0" encoding="UTF-8" standalone="no"?>
<!-- Created with Inkscape (http://www.inkscape.org/) -->

<svg
   width="17.522976mm"
   height="17.523485mm"
   viewBox="0 0 17.522976 17.523485"
   version="1.1"
   id="svg1461"
   inkscape:version="1.1.2 (0a00cf5339, 2022-02-04)"
   sodipodi:docname="profile2.svg"
   xmlns:inkscape="http://www.inkscape.org/namespaces/inkscape"
   xmlns:sodipodi="http://sodipodi.sourceforge.net/DTD/sodipodi-0.dtd"
   xmlns="http://www.w3.org/2000/svg"
   xmlns:svg="http://www.w3.org/2000/svg">
  <sodipodi:namedview
     id="namedview1463"
     pagecolor="#ffffff"
     bordercolor="#666666"
     borderopacity="1.0"
     inkscape:pageshadow="2"
     inkscape:pageopacity="0.0"
     inkscape:pagecheckerboard="0"
     inkscape:document-units="mm"
     showgrid="false"
     inkscape:zoom="0.58261785"
     inkscape:cx="188.80301"
     inkscape:cy="190.5194"
     inkscape:window-width="1600"
     inkscape:window-height="832"
     inkscape:window-x="0"
     inkscape:window-y="0"
     inkscape:window-maximized="1"
     inkscape:current-layer="layer1" />
  <defs
     id="defs1458" />
  <g
     inkscape:label="Calque 1"
     inkscape:groupmode="layer"
     id="layer1"
     transform="translate(-54.816495,-97.958441)">
    <g
       id="g2110"
       style="fill:#ffffff;fill-opacity:1">
      <path
         id="path1092"
         style="opacity:1;fill:#ffffff;fill-opacity:1;fill-rule:evenodd;stroke-width:1.091;stroke-linecap:round;stroke-linejoin:round"
         d="m 63.578233,97.958482 a 8.7617235,8.7617235 0 0 0 -8.761738,8.761738 8.7617235,8.7617235 0 0 0 2.118217,5.7087 8.7617233,8.7617233 0 0 0 -0.0011,10e-4 8.7617233,8.7617233 0 0 0 6.643005,3.05201 8.7617233,8.7617233 0 0 0 6.646105,-3.05667 8.7617233,8.7617233 0 0 0 -0.06511,-0.0759 8.7617233,8.7617233 0 0 0 -0.150894,-0.16744 8.7617233,8.7617233 0 0 0 -0.155549,-0.16381 8.7617233,8.7617233 0 0 0 -0.159163,-0.15916 8.7617233,8.7617233 0 0 0 -0.163814,-0.15555 8.7617233,8.7617233 0 0 0 -0.167431,-0.1509 8.7617233,8.7617233 0 0 0 -0.171566,-0.14676 8.7617233,8.7617233 0 0 0 -0.175183,-0.14262 8.7617233,8.7617233 0 0 0 -0.04186,-0.032 7.0021391,7.0021391 0 0 0 0.0011,-0.001 8.7617235,8.7617235 0 0 0 -0.135911,-0.10439 8.7617235,8.7617235 0 0 0 -0.182417,-0.13333 8.7617235,8.7617235 0 0 0 -0.185518,-0.12815 8.7617235,8.7617235 0 0 0 -0.188619,-0.12351 8.7617235,8.7617235 0 0 0 -0.192236,-0.11886 8.7617235,8.7617235 0 0 0 -0.19482,-0.11368 8.7617235,8.7617235 0 0 0 -0.197922,-0.10852 8.7617235,8.7617235 0 0 0 -0.200504,-0.10336 8.7617235,8.7617235 0 0 0 -0.203089,-0.0982 8.7617235,8.7617235 0 0 0 -0.205155,-0.093 8.7617235,8.7617235 0 0 0 -0.208256,-0.0879 8.7617235,8.7617235 0 0 0 -0.209807,-0.0822 8.7617235,8.7617235 0 0 0 -0.212389,-0.077 8.7617235,8.7617235 0 0 0 -0.213942,-0.0713 8.7617235,8.7617235 0 0 0 -0.21549,-0.0656 8.7617235,8.7617235 0 0 0 -0.217559,-0.0605 8.7617235,8.7617235 0 0 0 -0.219106,-0.0548 8.7617235,8.7617235 0 0 0 -0.220142,-0.0491 8.7617235,8.7617235 0 0 0 -0.0016,0 8.7617233,8.7617233 0 0 0 -0.219626,-0.0429 8.7617235,8.7617235 0 0 0 -0.0016,0 8.7617233,8.7617233 0 0 0 -0.221176,-0.0377 8.7617235,8.7617235 0 0 0 -0.0016,0 8.7617233,8.7617233 0 0 0 -0.221692,-0.032 8.7617235,8.7617235 0 0 0 -0.0016,0 8.7617233,8.7617233 0 0 0 -0.222723,-0.0258 8.7617235,8.7617235 0 0 0 -0.0016,0 8.7617233,8.7617233 0 0 0 -0.222726,-0.0202 8.7617235,8.7617235 0 0 0 -0.0016,0 8.7617233,8.7617233 0 0 0 -0.223759,-0.015 8.7617235,8.7617235 0 0 0 -0.0016,0 8.7617233,8.7617233 0 0 0 -0.223758,-0.008 8.7617235,8.7617235 0 0 0 -0.0016,0 8.7617233,8.7617233 0 0 0 -0.225827,-0.003 8.7617233,8.7617233 0 0 0 -0.65319,0.0243 8.7617233,8.7617233 0 0 0 -0.0016,0 8.7617233,8.7617233 0 0 0 -0.649574,0.0734 8.7617233,8.7617233 0 0 0 -0.0016,0 8.7617233,8.7617233 0 0 0 -0.643888,0.12196 8.7617233,8.7617233 0 0 0 -0.633036,0.1695 8.7617233,8.7617233 0 0 0 -0.618051,0.21652 8.7617233,8.7617233 0 0 0 -0.60048,0.262 8.7617233,8.7617233 0 0 0 -0.579292,0.30593 8.7617233,8.7617233 0 0 0 -0.555006,0.34881 8.7617233,8.7617233 0 0 0 -0.454752,0.33383 7.0021391,7.0021391 0 0 1 -1.610236,-4.46122 7.0021391,7.0021391 0 0 1 7.002156,-7.002161 7.0021391,7.0021391 0 0 1 7.002155,7.002161 7.0021391,7.0021391 0 0 1 -1.607135,4.46329 8.7617235,8.7617235 0 0 1 0.04237,0.0331 8.7617235,8.7617235 0 0 1 0.175184,0.14263 8.7617235,8.7617235 0 0 1 0.171566,0.14676 8.7617235,8.7617235 0 0 1 0.167431,0.15089 8.7617235,8.7617235 0 0 1 0.163814,0.15555 8.7617235,8.7617235 0 0 1 0.159163,0.15916 8.7617235,8.7617235 0 0 1 0.155548,0.16382 8.7617235,8.7617235 0 0 1 0.150895,0.16743 8.7617235,8.7617235 0 0 1 0.06511,0.076 8.7617235,8.7617235 0 0 0 2.115635,-5.70508 8.7617235,8.7617235 0 0 0 -8.76174,-8.761739 z" />
      <circle
         style="opacity:1;fill:#ffffff;fill-opacity:1;fill-rule:evenodd;stroke-width:1.1905;stroke-linecap:round;stroke-linejoin:round"
         id="path1354"
         cx="63.57798"
         cy="105.02346"
         r="3.2502725" />
    </g>
  </g>
</svg>
