<?xml version="1.0" encoding="UTF-8" standalone="no"?>
<!-- Created with Inkscape (http://www.inkscape.org/) -->

<svg
   width="12.47418mm"
   height="12.47418mm"
   viewBox="0 0 12.47418 12.47418"
   version="1.1"
   id="svg51267"
   inkscape:version="1.1.2 (0a00cf5339, 2022-02-04)"
   sodipodi:docname="recent.svg"
   xmlns:inkscape="http://www.inkscape.org/namespaces/inkscape"
   xmlns:sodipodi="http://sodipodi.sourceforge.net/DTD/sodipodi-0.dtd"
   xmlns="http://www.w3.org/2000/svg"
   xmlns:svg="http://www.w3.org/2000/svg">
  <sodipodi:namedview
     id="namedview51269"
     pagecolor="#ffffff"
     bordercolor="#666666"
     borderopacity="1.0"
     inkscape:pageshadow="2"
     inkscape:pageopacity="0.0"
     inkscape:pagecheckerboard="0"
     inkscape:document-units="mm"
     showgrid="false"
     inkscape:zoom="0.58261785"
     inkscape:cx="-348.42736"
     inkscape:cy="-44.626165"
     inkscape:window-width="1600"
     inkscape:window-height="832"
     inkscape:window-x="0"
     inkscape:window-y="0"
     inkscape:window-maximized="1"
     inkscape:current-layer="layer1" />
  <defs
     id="defs51264" />
  <g
     inkscape:label="Calque 1"
     inkscape:groupmode="layer"
     id="layer1"
     transform="translate(-197.21245,-160.42805)">
    <path
       id="path8033"
       style="fill:#949494;fill-opacity:1;fill-rule:evenodd;stroke:none;stroke-width:0.698786;stroke-linecap:round;stroke-linejoin:round;stroke-miterlimit:4;stroke-dasharray:none;stroke-opacity:1"
       d="m 203.44982,160.42805 a 6.2369998,6.2369998 0 0 0 -6.23737,6.23684 6.2369998,6.2369998 0 0 0 6.23737,6.23734 6.2369998,6.2369998 0 0 0 6.23681,-6.23734 6.2369998,6.2369998 0 0 0 -6.23681,-6.23684 z m 0.1633,2.07431 c 0.52644,0 0.41338,0.25154 0.40566,5.07307 -3.99278,0.008 -4.08475,0.0716 -4.09176,-0.55449 -0.007,-0.62614 0.10949,-0.54666 3.07734,-0.59015 0.0201,-3.82538 -0.0313,-3.91602 0.55552,-3.9274 0.0183,0 0.0362,0 0.0532,0 z" />
  </g>
</svg>
