<?xml version="1.0" encoding="UTF-8" standalone="no"?>
<!-- Created with Inkscape (http://www.inkscape.org/) -->

<svg
   width="22.761713mm"
   height="16.252367mm"
   viewBox="0 0 22.761713 16.252367"
   version="1.1"
   id="svg1667"
   inkscape:version="1.1.2 (0a00cf5339, 2022-02-04)"
   sodipodi:docname="speaker.svg"
   xmlns:inkscape="http://www.inkscape.org/namespaces/inkscape"
   xmlns:sodipodi="http://sodipodi.sourceforge.net/DTD/sodipodi-0.dtd"
   xmlns="http://www.w3.org/2000/svg"
   xmlns:svg="http://www.w3.org/2000/svg">
  <sodipodi:namedview
     id="namedview1669"
     pagecolor="#ffffff"
     bordercolor="#666666"
     borderopacity="1.0"
     inkscape:pageshadow="2"
     inkscape:pageopacity="0.0"
     inkscape:pagecheckerboard="0"
     inkscape:document-units="mm"
     showgrid="false"
     inkscape:zoom="0.58261785"
     inkscape:cx="156.19158"
     inkscape:cy="-25.745864"
     inkscape:window-width="1600"
     inkscape:window-height="832"
     inkscape:window-x="0"
     inkscape:window-y="0"
     inkscape:window-maximized="1"
     inkscape:current-layer="layer1" />
  <defs
     id="defs1664" />
  <g
     inkscape:label="Calque 1"
     inkscape:groupmode="layer"
     id="layer1"
     transform="translate(-63.550339,-155.36005)">
    <g
       id="g1640"
       transform="translate(-192.61399,102.0371)">
      <path
         style="fill:#ffffff;fill-rule:evenodd;stroke-width:0.366429;stroke-linecap:round;stroke-linejoin:round"
         d="m 265.36229,53.970017 c -1.03865,0.223813 -1.64461,1.224153 -2.43549,1.846468 -0.80803,0.758317 -1.61483,1.517627 -2.42579,2.273168 -1.11322,0.05721 -2.26012,-0.121788 -3.35385,0.134128 -0.6241,0.26539 -0.955,0.944047 -0.94158,1.594707 -0.0275,1.279779 -0.10411,2.577362 0.0653,3.847751 0.18976,0.597995 0.70872,1.239229 1.39785,1.122587 0.96218,0.06736 1.96698,-0.07173 2.90042,0.178142 1.47846,1.172215 2.68336,2.675704 4.20815,3.79408 0.45863,0.342918 1.07706,0.11145 1.40078,-0.296326 -0.0129,-4.660857 0.0257,-9.333222 -0.0193,-13.986912 -0.24858,-0.171177 -0.47695,-0.475207 -0.79657,-0.507793 z"
         id="path1015" />
      <path
         style="fill:#ffffff;fill-rule:evenodd;stroke-width:0.366429;stroke-linecap:round;stroke-linejoin:round"
         d="m 269.63089,57.845853 c -0.57797,-0.01371 -0.63011,0.797676 -0.26179,1.094174 0.06,0.264607 0.31328,0.423468 0.31623,0.71593 0.42136,0.991354 0.3581,2.159926 0.14173,3.19396 -0.15943,0.437888 -0.32723,0.869448 -0.57015,1.273935 -0.17981,0.320188 -0.19057,0.919773 0.30676,0.927224 0.728,0.08311 0.9576,-0.769152 1.22767,-1.271222 0.52433,-1.179055 0.45343,-2.528853 0.28861,-3.779425 -0.18447,-0.717285 -0.46783,-1.460675 -0.97109,-2.01382 -0.13449,-0.104474 -0.30828,-0.15521 -0.47797,-0.140756 z"
         id="path1054" />
      <path
         style="fill:#ffffff;fill-rule:evenodd;stroke-width:0.366429;stroke-linecap:round;stroke-linejoin:round"
         d="m 272.85439,55.505235 c -0.42761,0.03474 -0.75543,0.688536 -0.43726,0.99318 0.39827,0.504967 0.61732,1.166428 0.89981,1.750949 0.73757,1.863648 0.77591,3.994576 0.16896,5.905103 -0.15115,0.306088 -0.16297,0.651264 -0.36878,0.933532 -0.1612,0.633449 -0.77299,1.125323 -0.81171,1.787697 0.10876,0.364476 0.59902,0.723976 0.91397,0.352676 0.70493,-0.760778 1.11974,-1.751563 1.43707,-2.724068 0.0688,-0.46073 0.30874,-0.885761 0.31425,-1.36612 0.20376,-1.573179 0.1783,-3.213497 -0.30731,-4.731359 -0.0238,-0.349102 -0.27528,-0.619506 -0.34211,-0.961464 -0.18574,-0.454615 -0.44864,-0.896956 -0.71309,-1.290471 -0.13213,-0.279791 -0.43675,-0.601504 -0.7538,-0.649655 z"
         id="path1093" />
      <path
         style="fill:#ffffff;fill-rule:evenodd;stroke-width:0.366429;stroke-linecap:round;stroke-linejoin:round"
         d="m 276.02834,53.323833 c -0.43013,0.03949 -0.73378,0.596894 -0.39749,0.940633 0.60025,1.023006 1.21333,2.072524 1.51407,3.22145 0.23526,0.357132 0.15696,0.822918 0.35142,1.205577 0.33224,1.711071 0.30233,3.511481 0.0608,5.232429 -0.10969,0.449636 -0.23935,0.894673 -0.32774,1.345546 -0.20102,0.281173 -0.16462,0.647994 -0.38472,0.923118 -0.29373,0.907519 -0.81229,1.728632 -1.28526,2.551438 -0.29614,0.334256 0.10418,0.756857 0.43978,0.825916 0.52236,0.06471 0.73927,-0.468831 0.98056,-0.830175 0.17975,-0.400344 0.48137,-0.754259 0.63656,-1.178436 0.30863,-0.640509 0.5372,-1.312357 0.75285,-1.983208 0.46614,-1.476777 0.60653,-3.033202 0.54212,-4.576921 -0.0163,-0.808813 -0.006,-1.639002 -0.24735,-2.408804 -0.0336,-0.525997 -0.28164,-0.996641 -0.3571,-1.511075 -0.26001,-0.664914 -0.47375,-1.351045 -0.8312,-1.983547 -0.1697,-0.345707 -0.36905,-0.651513 -0.53155,-0.989052 -0.20488,-0.243052 -0.27093,-0.590823 -0.61762,-0.702993 -0.092,-0.04591 -0.19288,-0.08955 -0.29808,-0.0819 z"
         id="path1132" />
    </g>
  </g>
</svg>
