<?xml version="1.0" encoding="UTF-8" standalone="no"?>
<!-- Created with Inkscape (http://www.inkscape.org/) -->

<svg
   width="8.460824mm"
   height="5.4481635mm"
   viewBox="0 0 8.460824 5.4481635"
   version="1.1"
   id="svg5"
   inkscape:version="1.1.2 (0a00cf5339, 2022-02-04)"
   sodipodi:docname="video-icon-q.svg"
   xmlns:inkscape="http://www.inkscape.org/namespaces/inkscape"
   xmlns:sodipodi="http://sodipodi.sourceforge.net/DTD/sodipodi-0.dtd"
   xmlns="http://www.w3.org/2000/svg"
   xmlns:svg="http://www.w3.org/2000/svg">
  <sodipodi:namedview
     id="namedview7"
     pagecolor="#ffffff"
     bordercolor="#666666"
     borderopacity="1.0"
     inkscape:pageshadow="2"
     inkscape:pageopacity="0.0"
     inkscape:pagecheckerboard="0"
     inkscape:document-units="mm"
     showgrid="false"
     inkscape:zoom="7.0178607"
     inkscape:cx="15.531799"
     inkscape:cy="12.824421"
     inkscape:window-width="1600"
     inkscape:window-height="832"
     inkscape:window-x="0"
     inkscape:window-y="0"
     inkscape:window-maximized="1"
     inkscape:current-layer="layer1" />
  <defs
     id="defs2" />
  <g
     inkscape:label="Calque 1"
     inkscape:groupmode="layer"
     id="layer1"
     transform="translate(-86.222954,-138.34108)">
    <path
       id="rect858"
       style="fill:#ffffff;fill-opacity:1;fill-rule:evenodd;stroke-width:3.93513;stroke-linecap:round;stroke-linejoin:round"
       d="M 3.5546875,0 C 1.5854764,0 0,1.5322814 0,3.4355469 V 17.15625 c 0,1.903265 1.5854764,3.435547 3.5546875,3.435547 H 18.572266 c 1.969211,0 3.554687,-1.532282 3.554687,-3.435547 V 3.4355469 C 22.126953,1.5322814 20.541477,0 18.572266,0 Z m 7.5839845,2.7675781 c 1.519687,-0.017736 2.66352,0.4070179 3.410156,1.1113281 0.770706,0.72703 1.049018,1.6696534 1.054688,2.4492188 0.0091,1.2665197 -0.476027,2.303602 -1.121094,3.0273438 -0.645063,0.7237412 -1.415142,1.1744652 -2.03125,1.5429692 -0.556766,0.332825 -0.640252,0.456852 -0.664063,0.509765 -0.0237,0.05299 -0.05758,0.344335 -0.05078,1.041016 A 1.0044076,1.0044076 0 0 1 10.740234,13.466797 1.0044076,1.0044076 0 0 1 9.7207031,12.470703 C 9.7136732,11.768883 9.6765903,11.214158 9.9570312,10.587891 10.237461,9.9615851 10.759685,9.5713344 11.417969,9.1777344 12.016907,8.8196241 12.598251,8.4527407 12.984375,8.0195312 13.370488,7.5863218 13.601372,7.1314791 13.595703,6.34375 13.593386,6.0144398 13.489747,5.6361587 13.175781,5.3398438 12.861805,5.0437556 12.273081,4.7415016 11.048828,4.7792969 9.9152722,4.8133126 9.3457201,5.2482544 8.96875,5.6796875 8.5917686,6.1112718 8.4882812,6.484375 8.4882812,6.484375 a 1.0044076,1.0044076 0 0 1 -1.2402343,0.6855469 1.0044076,1.0044076 0 0 1 -0.6875,-1.2460938 c 0,0 0.2377932,-0.8058519 0.9023437,-1.5664062 C 8.1274374,3.5968675 9.3058048,2.82213 10.990234,2.7714844 c 0.04981,-0.0015 0.09942,-0.00333 0.148438,-0.00391 z M 10.640625,14.841797 a 1.4900691,1.4900691 0 0 1 1.488281,1.490234 1.4900691,1.4900691 0 0 1 -1.488281,1.490235 1.4900691,1.4900691 0 0 1 -1.4902344,-1.490235 1.4900691,1.4900691 0 0 1 1.4902344,-1.490234 z"
       transform="matrix(0.26458333,0,0,0.26458333,86.222954,138.34108)" />
    <path
       id="rect858-3"
       style="fill:#ffffff;fill-opacity:1;fill-rule:evenodd;stroke-width:0.571626;stroke-linecap:round;stroke-linejoin:round"
       d="m 92.882328,139.92909 1.173502,-0.95448 c 0.146422,-0.11909 0.618051,-0.14604 0.619046,0.27299 l 0.0089,3.75208 c 9.95e-4,0.41901 -0.553049,0.41409 -0.69647,0.2914 l -1.104986,-0.94527 c -0.143421,-0.12269 -0.340684,-0.33733 -0.340684,-0.75635 v -0.90401 c 0,-0.41903 0.194262,-0.63727 0.340684,-0.75636 z"
       sodipodi:nodetypes="ssssssssss" />
  </g>
</svg>
