<svg xmlns="http://www.w3.org/2000/svg" viewBox="0 0 22 22">
  <path fill="currentColor" d="M11 4.25a6.75 6.75 0 1 0 0 13.5A6.75 6.75 0 0 0 11 4.25Zm0 1.5c.8 0 1.7 1.3 2.1 3.25H8.9C9.3 7.05 10.2 5.75 11 5.75Zm-2.4.55c-.5.7-.9 1.7-1.1 2.7H5.9a5.26 5.26 0 0 1 2.7-2.7Zm4.8 0a5.26 5.26 0 0 1 2.7 2.7h-1.6c-.2-1-.6-2-1.1-2.7ZM5.75 11c0-.2 0-.35.02-.5h1.6a10.6 10.6 0 0 0 0 1h-1.6A5.6 5.6 0 0 1 5.75 11Zm3.2-.5h4.1a9.1 9.1 0 0 1 0 1H8.95a9.1 9.1 0 0 1 0-1Zm5.68 0h1.6c.02.15.02.3.02.5 0 .2 0 .35-.02.5h-1.6a10.6 10.6 0 0 0 0-1Zm-8.73 2.5h1.6c.2 1 .6 2 1.1 2.7A5.26 5.26 0 0 1 5.9 13Zm8.6 0h1.6a5.26 5.26 0 0 1-2.7 2.7c.5-.7.9-1.7 1.1-2.7ZM8.9 13h4.2c-.4 1.95-1.3 3.25-2.1 3.25S9.3 14.95 8.9 13Z"/>
</svg>
